<svg width="21" height="22" viewBox="0 0 21 22" fill="none" xmlns="http://www.w3.org/2000/svg">
<path fill-rule="evenodd" clip-rule="evenodd" d="M3.5 0.166672C2.63805 0.166672 1.8114 0.509082 1.2019 1.11857C0.59241 1.72807 0.25 2.55472 0.25 3.41667V18.5833C0.25 19.4453 0.59241 20.2719 1.2019 20.8814C1.8114 21.4909 2.63805 21.8333 3.5 21.8333H10C10.862 21.8333 11.6886 21.4909 12.2981 20.8814C12.9076 20.2719 13.25 19.4453 13.25 18.5833V3.41667C13.25 2.55472 12.9076 1.72807 12.2981 1.11857C11.6886 0.509082 10.862 0.166672 10 0.166672H3.5ZM14.6507 5.90075C14.8539 5.69766 15.1294 5.58357 15.4167 5.58357C15.7039 5.58357 15.9794 5.69766 16.1826 5.90075L20.5159 10.2341C20.719 10.4372 20.8331 10.7127 20.8331 11C20.8331 11.2873 20.719 11.5628 20.5159 11.7659L16.1826 16.0993C15.9783 16.2966 15.7046 16.4058 15.4206 16.4033C15.1365 16.4009 14.8648 16.2869 14.6639 16.0861C14.4631 15.8852 14.3492 15.6135 14.3467 15.3294C14.3442 15.0454 14.4534 14.7717 14.6507 14.5674L17.1348 12.0833H7.83333C7.54601 12.0833 7.27046 11.9692 7.0673 11.766C6.86414 11.5629 6.75 11.2873 6.75 11C6.75 10.7127 6.86414 10.4371 7.0673 10.234C7.27046 10.0308 7.54601 9.91667 7.83333 9.91667H17.1348L14.6507 7.43259C14.4477 7.22943 14.3336 6.95393 14.3336 6.66667C14.3336 6.37941 14.4477 6.10391 14.6507 5.90075Z" fill="#808080"/>
</svg>
