<svg width="24" height="25" viewBox="0 0 24 25" fill="none" xmlns="http://www.w3.org/2000/svg">
<path d="M7.09011 17.966C9.12145 17.966 10.7682 16.3193 10.7682 14.288C10.7682 12.2566 9.12145 10.6099 7.09011 10.6099C5.05878 10.6099 3.41206 12.2566 3.41206 14.288C3.41206 16.3193 5.05878 17.966 7.09011 17.966Z" stroke="#7BB43F" stroke-width="3" stroke-linecap="round" stroke-linejoin="round"/>
<path d="M16.8982 9.79263C18.9296 9.79263 20.5763 8.14591 20.5763 6.11457C20.5763 4.08324 18.9296 2.43652 16.8982 2.43652C14.8669 2.43652 13.2202 4.08324 13.2202 6.11457C13.2202 8.14591 14.8669 9.79263 16.8982 9.79263Z" stroke="#7BB43F" stroke-width="3" stroke-linecap="round" stroke-linejoin="round"/>
<path d="M11.5855 14.6965C11.5855 13.0618 12.8115 9.79243 16.8982 9.79243C20.9849 9.79243 22.211 13.0618 22.211 14.6965M1.77734 22.8699C1.77734 21.2353 3.00336 17.9659 7.09008 17.9659C11.1768 17.9659 12.4028 21.2353 12.4028 22.8699" stroke="#7BB43F" stroke-width="3" stroke-linecap="round" stroke-linejoin="round"/>
</svg>
